<?xml version="1.0" encoding="utf-8"?>
<!-- Generator: Adobe Illustrator 18.0.0, SVG Export Plug-In . SVG Version: 6.00 Build 0)  -->
<!DOCTYPE svg PUBLIC "-//W3C//DTD SVG 1.1//EN" "http://www.w3.org/Graphics/SVG/1.1/DTD/svg11.dtd">
<svg version="1.1" xmlns="http://www.w3.org/2000/svg" xmlns:xlink="http://www.w3.org/1999/xlink" x="0px" y="0px"
	 viewBox="0 0 595.3 595.3" enable-background="new 0 0 595.3 595.3" xml:space="preserve">
<g id="Capa_1">
</g>
<g id="Capa_2">
	<linearGradient id="SVGID_1_" gradientUnits="userSpaceOnUse" x1="27.9999" y1="295.9316" x2="566.4017" y2="295.9316">
		<stop  offset="0" style="stop-color:#2581C4"/>
		<stop  offset="1" style="stop-color:#2581C4;stop-opacity:0"/>
	</linearGradient>
	<path opacity="0.6" fill="url(#SVGID_1_)" d="M294.9,564.6c-38.1,0-76.3,0.6-114.4-0.1C97.2,562.9,30,496.3,28.8,412.9
		c-1.1-77.2-1-154.4,0-231.7C29.8,96.6,96.8,29.5,182.1,28c76.2-1.3,152.5-1.4,228.8-0.1c87.2,1.5,153.3,68,154.6,155
		c1.1,75.3,1.1,150.6,0.1,225.9c-1.2,90-68.6,155.2-159.2,155.8C369.2,564.8,332.1,564.6,294.9,564.6z"/>
	<linearGradient id="SVGID_2_" gradientUnits="userSpaceOnUse" x1="28.7841" y1="373.8907" x2="566.4017" y2="373.8907">
		<stop  offset="0" style="stop-color:#2581C4"/>
		<stop  offset="1" style="stop-color:#2581C4;stop-opacity:0"/>
	</linearGradient>
	<path opacity="0.8" fill="url(#SVGID_2_)" d="M565.6,182.9c1.1,75.3,1.1,150.6,0.1,225.9c-1.2,90-68.6,155.2-159.2,155.8
		c-37.2,0.2-74.4,0-111.5,0c-38.1,0-76.3,0.6-114.4-0.1C97.2,562.9,30,496.3,28.8,412.9"/>
	<path fill="none" stroke="#FFFFFF" stroke-width="18.6618" stroke-miterlimit="10" d="M323.2,382.5c0,25.5-0.3,51,0.2,76.4
		c0.2,8-2.4,9.9-10,9.7c-17.7-0.5-35.4-0.5-53.2,0c-7.3,0.2-9.3-1.9-9.2-9.2c0.3-50.9-0.1-101.9,0.4-152.8
		c0.1-9.1-2.8-10.9-11.1-10.7c-22.9,0.5-22.9,0.1-22.9-22.5c0-10.7,0.2-21.4-0.1-32.1c-0.2-5,1.5-6.8,6.3-6.1c0.4,0.1,0.7,0,1.1,0
		c8.4-0.2,20,2.9,24.5-1.5c5.9-5.7,1.7-17.3,1.8-26.4c0.1-13,0.3-25.9,4.4-38.3c8.5-26.1,26.7-41.1,53.7-44.4
		c20.6-2.5,41.3-0.5,62-0.9c5.3-0.1,5.9,2.5,5.9,6.8c-0.2,15.1-0.3,30.3,0.1,45.4c0.1,5.6-2,6.9-7.1,6.7c-9.6-0.3-19.2-0.3-28.8,0
		c-13.1,0.3-17.8,5-18,18.3c-0.1,11-4,25.6,1.5,32.2c5.7,6.9,20.8,1.9,31.8,2c21,0.3,20.9,0.1,18.9,21.2c-1.1,10.6-2.2,21.3-2.9,32
		c-0.4,6.1-2.8,8.3-8.9,8c-9.6-0.4-19.2,0.5-28.8-0.3c-9-0.7-12.1,1.8-11.8,11.3C323.6,332.3,323.2,357.4,323.2,382.5z"/>
</g>
</svg>
