<?xml version="1.0" encoding="utf-8"?>
<!-- Generator: Adobe Illustrator 18.0.0, SVG Export Plug-In . SVG Version: 6.00 Build 0)  -->
<!DOCTYPE svg PUBLIC "-//W3C//DTD SVG 1.1//EN" "http://www.w3.org/Graphics/SVG/1.1/DTD/svg11.dtd">
<svg version="1.1" xmlns="http://www.w3.org/2000/svg" xmlns:xlink="http://www.w3.org/1999/xlink" x="0px" y="0px"
	 viewBox="0 0 595.3 595.3" enable-background="new 0 0 595.3 595.3" xml:space="preserve">
<g id="Capa_1">
</g>
<g id="Capa_2">
	<linearGradient id="SVGID_1_" gradientUnits="userSpaceOnUse" x1="28" y1="294.6432" x2="563.8223" y2="294.6432">
		<stop  offset="0" style="stop-color:#E53112"/>
		<stop  offset="1" style="stop-color:#2581C4;stop-opacity:0"/>
	</linearGradient>
	<path opacity="0.6" fill="url(#SVGID_1_)" d="M293.6,562.1c-38,0-75.9,0.6-113.9-0.1c-82.9-1.6-149.8-67.9-151-150.9
		c-1.1-76.8-1-153.7,0-230.5C29.8,96.3,96.5,29.5,181.4,28c75.9-1.3,151.8-1.4,227.7-0.1c86.7,1.5,152.6,67.7,153.9,154.2
		c1.1,74.9,1.1,149.9,0.1,224.9c-1.2,89.6-68.2,154.5-158.5,155C367.6,562.2,330.6,562.1,293.6,562.1z"/>
	<linearGradient id="SVGID_2_" gradientUnits="userSpaceOnUse" x1="28.7804" y1="372.2288" x2="563.8223" y2="372.2288">
		<stop  offset="0" style="stop-color:#D42C16;stop-opacity:0.6"/>
		<stop  offset="1" style="stop-color:#AA4317;stop-opacity:0"/>
	</linearGradient>
	<path opacity="0.8" fill="url(#SVGID_2_)" d="M563,182.2c1.1,74.9,1.1,149.9,0.1,224.9c-1.2,89.6-68.2,154.5-158.5,155
		c-37,0.2-74,0-111,0c-38,0-75.9,0.6-113.9-0.1c-82.9-1.6-149.8-67.9-151-150.9"/>
	<path id="Youtube" fill="none" stroke="#FFFFFF" stroke-width="18.5724" stroke-miterlimit="10" d="M482.4,218
		c0,0-3.7-26.4-15.1-38c-14.5-15.3-30.7-15.3-38.1-16.2c-53.2-3.9-133.1-3.9-133.1-3.9h-0.2c0,0-79.9,0-133.1,3.9
		c-7.4,0.9-23.7,1-38.1,16.2c-11.4,11.6-15.1,38-15.1,38s-3.8,31-3.8,62v29.1c0,31,3.8,62,3.8,62s3.7,26.4,15.1,38
		c14.5,15.3,33.5,14.8,42,16.4c30.4,2.9,129.4,3.9,129.4,3.9s80-0.1,133.2-4c7.4-0.9,23.7-1,38.1-16.2c11.4-11.6,15.1-38,15.1-38
		s3.8-31,3.8-62V280C486.2,249,482.4,218,482.4,218z"/>
	<polygon fill="#FFFFFF" points="252.9,231.2 252.9,349.2 365.6,290.4 	"/>
</g>
</svg>
