<?xml version="1.0" encoding="utf-8"?>
<!-- Generator: Adobe Illustrator 18.0.0, SVG Export Plug-In . SVG Version: 6.00 Build 0)  -->
<!DOCTYPE svg PUBLIC "-//W3C//DTD SVG 1.1//EN" "http://www.w3.org/Graphics/SVG/1.1/DTD/svg11.dtd">
<svg version="1.1" xmlns="http://www.w3.org/2000/svg" xmlns:xlink="http://www.w3.org/1999/xlink" x="0px" y="0px"
	 viewBox="0 0 595.3 595.3" enable-background="new 0 0 595.3 595.3" xml:space="preserve">
<g id="Capa_1">
</g>
<g id="Capa_2">
	<g>
		<linearGradient id="SVGID_1_" gradientUnits="userSpaceOnUse" x1="28" y1="297.6432" x2="569.8283" y2="297.6432">
			<stop  offset="0" style="stop-color:#4EAD33;stop-opacity:0.6"/>
			<stop  offset="1" style="stop-color:#3B9A2F;stop-opacity:0"/>
		</linearGradient>
		<path opacity="0.6" fill="url(#SVGID_1_)" d="M296.6,568.1c-38.4,0-76.8,0.6-115.1-0.1C97.7,566.3,30,499.3,28.8,415.4
			c-1.1-77.7-1-155.4,0-233.1C29.8,97.1,97.2,29.5,183.1,28c76.7-1.3,153.5-1.4,230.2-0.1c87.7,1.5,154.3,68.4,155.6,156
			c1.1,75.8,1.1,151.6,0.1,227.4c-1.2,90.6-69,156.2-160.2,156.7C371.4,568.2,334,568.1,296.6,568.1z"/>
		<linearGradient id="SVGID_2_" gradientUnits="userSpaceOnUse" x1="28.7892" y1="376.0984" x2="569.8283" y2="376.0984">
			<stop  offset="0" style="stop-color:#37A936;stop-opacity:0.6"/>
			<stop  offset="1" style="stop-color:#63B32F;stop-opacity:0"/>
		</linearGradient>
		<path opacity="0.8" fill="url(#SVGID_2_)" d="M569,183.9c1.1,75.8,1.1,151.6,0.1,227.4c-1.2,90.6-69,156.2-160.2,156.7
			c-37.4,0.2-74.8,0-112.3,0c-38.4,0-76.8,0.6-115.1-0.1C97.7,566.3,30,499.3,28.8,415.4"/>
	</g>
	<path id="WhatsApp" fill="#FFFFFF" d="M475,293.1c0,94.7-77.4,171.5-172.9,171.5c-30.3,0-58.8-7.7-83.6-21.3l-95.7,30.4l31.2-92
		c-15.7-25.8-24.8-56.2-24.8-88.6c0-94.7,77.4-171.5,172.9-171.5C397.6,121.6,475,198.4,475,293.1z M302.1,148.9
		c-80.1,0-145.3,64.7-145.3,144.2c0,31.6,10.3,60.8,27.7,84.6l-18.2,53.6l55.9-17.8c22.9,15.1,50.4,23.9,80,23.9
		c80.1,0,145.3-64.7,145.3-144.2S382.3,148.9,302.1,148.9z M389.4,332.6c-1.1-1.7-3.9-2.8-8.1-4.9c-4.2-2.1-25.1-12.3-29-13.7
		c-3.9-1.4-6.7-2.1-9.5,2.1c-2.8,4.2-10.9,13.7-13.4,16.5c-2.5,2.8-4.9,3.2-9.2,1.1c-4.2-2.1-17.9-6.5-34.1-20.9
		c-12.6-11.1-21.1-24.9-23.6-29.1c-2.5-4.2-0.3-6.5,1.9-8.6c1.9-1.9,4.2-4.9,6.4-7.4c2.1-2.5,2.8-4.2,4.2-7c1.4-2.8,0.7-5.3-0.4-7.4
		c-1.1-2.1-9.5-22.8-13.1-31.2c-3.5-8.4-7.1-7-9.5-7c-2.5,0-5.3-0.4-8.1-0.4c-2.8,0-7.4,1.1-11.3,5.3c-3.9,4.2-14.8,14.4-14.8,35.1
		c0,20.7,15.2,40.7,17.3,43.5c2.1,2.8,29.3,46.6,72.4,63.5c43.1,16.8,43.1,11.2,50.9,10.5c7.8-0.7,25.1-10.2,28.6-20
		C390.5,342.8,390.5,334.4,389.4,332.6z"/>
</g>
</svg>
